<?xml version="1.0" standalone="no"?>
<!DOCTYPE svg PUBLIC "-//W3C//DTD SVG 20010904//EN"
 "http://www.w3.org/TR/2001/REC-SVG-20010904/DTD/svg10.dtd">
<svg version="1.0" xmlns="http://www.w3.org/2000/svg"
 width="172.000000pt" height="172.000000pt" viewBox="0 0 172.000000 172.000000"
 preserveAspectRatio="xMidYMid meet">

<g transform="translate(0.000000,172.000000) scale(0.100000,-0.100000)"
fill="#000000" stroke="none">
<path d="M310 906 c0 -153 -5 -171 -47 -160 -16 4 -26 -1 -39 -21 -23 -35 -7
-50 56 -50 38 0 55 5 72 23 22 21 23 31 26 187 l3 165 -35 0 -36 0 0 -144z"/>
<path d="M667 1013 c8 -21 49 -105 90 -186 l74 -149 90 182 c49 100 89 183 89
186 0 2 -20 4 -45 4 l-45 0 -42 -85 c-23 -47 -45 -85 -49 -85 -3 0 -24 38 -45
85 l-39 85 -47 0 -47 0 16 -37z"/>
<path d="M1105 1041 c3 -5 1 -12 -5 -16 -16 -10 -72 -133 -66 -144 4 -5 0 -13
-8 -18 -12 -7 -96 -163 -96 -178 0 -3 131 -5 290 -5 l290 0 0 185 0 185 -206
0 c-124 0 -203 -4 -199 -9z m35 -126 c0 -31 3 -35 25 -35 22 0 25 4 25 36 0
33 2 35 31 32 l31 -3 -1 -97 c0 -54 0 -104 -1 -111 0 -9 -10 -12 -30 -9 -28 4
-30 7 -30 48 0 46 -7 53 -29 32 -11 -10 -13 -10 -7 0 4 6 2 12 -4 12 -8 0 -11
-14 -8 -40 4 -42 -4 -50 -48 -50 -24 0 -24 0 -24 110 l0 110 35 0 c33 0 35 -2
35 -35z m291 6 c16 -16 29 -38 30 -48 0 -10 2 -29 4 -43 2 -16 -7 -37 -25 -59
-26 -30 -35 -34 -93 -38 l-66 -6 -3 112 -3 111 63 0 c57 0 67 -3 93 -29z"/>
<path d="M1340 846 c0 -25 5 -48 10 -51 6 -3 10 -1 10 4 0 6 5 10 12 9 15 -4
22 26 14 58 -4 15 -14 24 -26 24 -17 0 -20 -7 -20 -44z"/>
<path d="M556 1032 c-12 -21 -156 -345 -156 -353 0 -5 15 -9 33 -9 30 0 36 5
52 40 l18 40 62 0 62 0 18 -40 c16 -35 22 -40 52 -40 18 0 33 4 33 8 0 9 -156
351 -163 359 -3 2 -8 0 -11 -5z m34 -204 c0 -5 -11 -8 -25 -8 -27 0 -31 10
-14 42 11 21 12 21 25 -3 7 -13 13 -27 14 -31z"/>
</g>
</svg>
